<?xml version="1.0" encoding="UTF-8" standalone="no"?>
<svg
   xmlns:dc="http://purl.org/dc/elements/1.1/"
   xmlns:cc="http://creativecommons.org/ns#"
   xmlns:rdf="http://www.w3.org/1999/02/22-rdf-syntax-ns#"
   xmlns:svg="http://www.w3.org/2000/svg"
   xmlns="http://www.w3.org/2000/svg"
   xmlns:sodipodi="http://sodipodi.sourceforge.net/DTD/sodipodi-0.dtd"
   xmlns:inkscape="http://www.inkscape.org/namespaces/inkscape"
   width="141.47513mm"
   height="197.32851mm"
   viewBox="0 0 141.47513 197.32851"
   version="1.1"
   id="svg8"
   inkscape:version="1.0.2 (e86c870879, 2021-01-15, custom)"
   sodipodi:docname="veles.svg">
  <defs
     id="defs2">
    <inkscape:perspective
       sodipodi:type="inkscape:persp3d"
       inkscape:vp_x="0 : 48.828503 : 1"
       inkscape:vp_y="0 : 999.99998 : 0"
       inkscape:vp_z="210 : 48.828503 : 1"
       inkscape:persp3d-origin="105 : -0.67149634 : 1"
       id="perspective10" />
    <clipPath
       clipPathUnits="userSpaceOnUse"
       id="clipPath1172">
      <g
         inkscape:label="Clip"
         id="use1174">
        <path
           style="fill:#2d5016;fill-opacity:1;stroke:none;stroke-width:0.337171px;stroke-linecap:butt;stroke-linejoin:miter;stroke-opacity:1"
           d="m -13.967368,23.462678 48.846548,81.623382 153.00587,2.01547 47.8091,-82.02425 -44.79616,-0.455118 -24.3042,53.223202 L 47.299699,77.094312 18.318185,17.798346 -19.92353,16.48792 Z"
           id="path1176" />
        <path
           style="fill:#2d5016;stroke:none;stroke-width:0.337171px;stroke-linecap:butt;stroke-linejoin:miter;stroke-opacity:1"
           d="M 39.888831,123.28961 108.04187,273.32962 181.36284,121.50031 Z"
           id="path1178" />
        <path
           style="fill:#ffffff;stroke:none;stroke-width:0.196912px;stroke-linecap:butt;stroke-linejoin:miter;stroke-opacity:1"
           d="m 69.690734,141.18787 39.676046,87.90344 42.68462,-88.95173 z"
           id="path1180" />
      </g>
    </clipPath>
  </defs>
  <sodipodi:namedview
     id="base"
     pagecolor="#ffffff"
     bordercolor="#666666"
     borderopacity="1.0"
     inkscape:pageopacity="0.0"
     inkscape:pageshadow="2"
     inkscape:zoom="0.71253427"
     inkscape:cx="362.77416"
     inkscape:cy="407.28577"
     inkscape:document-units="mm"
     inkscape:current-layer="layer1"
     inkscape:document-rotation="0"
     showgrid="false"
     inkscape:window-width="1920"
     inkscape:window-height="1017"
     inkscape:window-x="-8"
     inkscape:window-y="-8"
     inkscape:window-maximized="1" />
  <metadata
     id="metadata5">
    <rdf:RDF>
      <cc:Work
         rdf:about="">
        <dc:format>image/svg+xml</dc:format>
        <dc:type
           rdf:resource="http://purl.org/dc/dcmitype/StillImage" />
        <dc:title></dc:title>
      </cc:Work>
    </rdf:RDF>
  </metadata>
  <g
     inkscape:label="Слой 1"
     inkscape:groupmode="layer"
     id="layer1">
    <path
       style="fill:#1a1a1a;stroke:none;stroke-width:0.264583px;stroke-linecap:butt;stroke-linejoin:miter;stroke-opacity:1"
       d="m 26.257248,140.33827 c 0,0 -3.53477,19.25441 -3.545501,20.858 -0.01074,1.60358 -0.589082,8.14796 -0.617699,12.42417 -0.02862,4.27622 -0.07423,11.09144 -0.219488,12.82776 -0.145259,1.73632 -0.309298,6.2789 -0.320029,7.88248 -0.01074,1.60359 0.12111,1.87174 0.12111,1.87174 0,0 10.181056,-3.67372 12.721849,-3.92399 2.540792,-0.25027 7.087849,-0.75439 11.09412,-0.32666 4.00627,0.42772 7.075328,1.11645 7.075328,1.11645 0,0 -10.039609,-57.39779 -10.302401,-58.06773 -0.262792,-0.66995 -3.24689,-14.0537 -3.24689,-14.0537 l -5.217004,0.76691 -5.823079,11.45388 z"
       id="path939" />
    <path
       style="fill:#000000;stroke:none;stroke-width:0.264583px;stroke-linecap:butt;stroke-linejoin:miter;stroke-opacity:1"
       d="m 91.449233,192.38607 40.507057,-6.22829 c 0,0 -13.68783,-41.17267 -13.69005,-42.30659 -0.002,-1.13393 -7.58787,-19.73847 -7.58787,-19.73847 l -10.5942,-0.25869 -15.054587,32.91348 z"
       id="path943" />
    <path
       style="fill:#1a1a1a;stroke:none;stroke-width:0.264583px;stroke-linecap:butt;stroke-linejoin:miter;stroke-opacity:1"
       d="m 106.22727,122.4657 c 0,0 3.15529,7.7721 3.41361,9.11021 0.25832,1.3381 1.29339,6.42327 1.27193,9.63043 -0.0215,3.20716 -1.72969,18.83135 -1.74042,20.43493 -0.0107,1.60358 -0.5855,7.61343 -0.8626,9.08159 -0.2771,1.46816 -1.51467,6.67175 -1.51467,6.67175 0,0 8.66103,3.79982 14.92652,6.1136 6.26549,2.31377 6.6637,2.71735 9.0637,3.53524 2.40001,0.81789 4.40001,1.49946 4.40001,1.49946 0,0 -2.94921,-18.59538 -5.81846,-29.17197 -2.86925,-10.57658 -4.8616,-18.33736 -4.8616,-18.33736 l -2.07832,-8.58372 -2.4777,-7.48178 c 0,0 -5.15588,-2.65677 -5.32077,-2.72875 -0.16489,-0.072 -1.48206,-7.99484 -1.64441,-8.44478 -0.16236,-0.44995 -1.78286,-1.87824 -1.78286,-1.87824 0,0 -4.50567,-0.97511 -4.72128,-0.5277 -0.21561,0.44742 -0.25268,11.07709 -0.25268,11.07709 z"
       id="path941" />
    <path
       style="fill:#999999;stroke:none;stroke-width:0.264583px;stroke-linecap:butt;stroke-linejoin:miter;stroke-opacity:1"
       d="m 48.419357,82.812873 c -3.256513,0.627682 -6.5504,1.735475 -9.076547,3.960425 -1.503482,1.69973 -1.932537,4.01676 -2.265975,6.18912 -1.013635,7.100772 -0.727087,14.293822 -0.613479,21.441012 0.09228,4.69517 0.354904,9.3883 0.880142,14.05589 1.130708,10.48487 3.255823,20.83328 5.714715,31.07902 2.683876,11.66806 4.907171,23.46825 5.974426,35.40344 1.133499,0.86237 2.632219,0.6797 3.957697,0.91661 9.170779,0.8467 18.390477,0.729 27.585377,1.08136 5.17509,0.12958 10.35019,0.25917 15.52528,0.38875 1.17188,-2.05961 1.1723,-4.50296 1.87809,-6.7195 1.90386,-8.55848 3.270867,-17.28558 3.250397,-26.07298 0.20527,-7.09708 0.51969,-14.25963 2.26009,-21.17541 2.2317,-10.32432 5.25004,-20.51643 6.36168,-31.05208 0.46384,-4.60426 0.60476,-9.3085 -0.37207,-13.858332 -0.828,-2.93226 -2.89121,-5.31461 -5.09303,-7.33459 -2.47523,-2.24091 -5.469657,-4.09665 -8.832397,-4.54705 -2.9133,-0.36194 -5.78939,0.46484 -8.68889,0.60275 -1.32937,0.09865 -2.66156,-0.01349 -3.97446,-0.22286 -11.30544,-1.28631 -22.575974,-2.855467 -33.869483,-4.239091 -0.200521,0.03451 -0.401042,0.06901 -0.601563,0.103516 z"
       id="path937" />
    <path
       style="fill:#ac9d93;stroke:none;stroke-width:0.264583px;stroke-linecap:butt;stroke-linejoin:miter;stroke-opacity:1"
       d="m 74.204323,75.165597 c 0,0 1.20272,10.156241 1.46998,11.091681 0.26728,0.93545 2.47225,8.48581 2.93997,8.75308 0.46772,0.26727 2.47224,1.20271 4.07586,2.27179 1.60362,1.06908 2.33861,1.20272 2.67269,1.93771 0.33409,0.73499 1.06908,2.004522 1.26954,2.405422 0.20045,0.40091 -0.0668,0.20046 1.46998,-1.13589 1.5368,-1.336352 1.5368,-1.336352 2.73951,-2.405432 1.20271,-1.06908 0.66817,-1.80407 1.20271,-3.27405 0.53454,-1.46998 0.26727,-1.9377 1.33635,-2.53906 1.06908,-0.60136 1.20272,-0.73499 1.80407,-1.20271 0.60136,-0.46773 0.93544,-0.40091 1.33635,-1.60362 0.4009,-1.20271 0.86862,-2.07134 1.00226,-3.14042 0.13363,-1.06908 -3.67496,-4.944484 -3.67496,-4.944484 l -9.2208,-8.886711 z"
       id="path931" />
    <path
       style="fill:#ac9d93;stroke:none;stroke-width:0.264583px;stroke-linecap:butt;stroke-linejoin:miter;stroke-opacity:1"
       d="m 48.346001,83.851857 c 0,0 3.741772,2.539061 6.414468,8.418991 2.672694,5.87993 4.543581,10.156242 4.543581,10.156242 l 1.336347,1.73725 -0.267269,-2.40542 2.271792,-0.40091 c 0,0 0.133633,-3.207232 1.202711,-5.078122 1.069078,-1.87089 0.267272,-3.34087 2.004523,-4.67722 1.737252,-1.33634 2.004521,-1.87088 2.405429,-2.40542 0.4009,-0.53454 1.73725,-0.93544 2.27179,-1.20271 0.53454,-0.26727 1.60361,-8.418993 1.60361,-8.953533 0,-0.534538 0.13364,-5.345391 0.13364,-5.345391 L 59.571319,73.027441 Z"
       id="path929" />
    <path
       style="fill:#6c5d53;stroke:none;stroke-width:0.264583px;stroke-linecap:butt;stroke-linejoin:miter;stroke-opacity:1"
       d="m 70.707393,76.109742 c 0,0 -0.0444,6.739855 -0.44529,8.677558 -0.40091,1.937708 -1.46998,8.285358 -1.60362,9.153978 -0.13363,0.86863 -0.33409,2.47225 -0.4009,3.54133 -0.0668,1.06907 -0.534542,1.80406 -0.534542,2.20497 0,0.400902 0.801812,0.734992 0.801812,0.734992 0,0 0.13363,-2.004522 1.40316,-1.469982 1.26953,0.53454 3.27405,1.870882 3.27405,1.870882 0,0 1.46998,0.46772 2.47224,-0.0668 1.00227,-0.53454 0.86863,-0.801812 1.73726,-1.670442 0.86862,-0.86862 1.13589,-1.9377 1.67043,-1.40316 0.53454,0.53454 0.33409,1.06907 1.00226,0.53454 0.66818,-0.53454 1.46999,-1.93771 0.26727,-5.41221 -1.20271,-3.4745 -2.47224,-6.94901 -2.53906,-7.41673 -0.0668,-0.46772 -1.26953,-4.409948 -1.40316,-4.744035 -0.13364,-0.334087 -0.0668,-2.138156 -0.0668,-2.138156 l -1.00226,-12.695303 -4.40995,-1.336347 -3.00678,4.009043 1.1359,6.481286 z"
       id="path927" />
    <path
       style="fill:#333333;stroke:none;stroke-width:0.264583px;stroke-linecap:butt;stroke-linejoin:miter;stroke-opacity:1"
       d="m 26.257248,140.33827 c 0,0 3.061756,-8.19355 5.235117,-11.21736 2.173365,-3.02381 5.426121,-4.92904 5.426121,-4.92904 0,0 1.056149,-14.88722 1.378201,-16.449 0.319907,-1.55137 4.723953,-13.490262 6.613834,-16.325092 1.889882,-2.83482 5.102678,-6.42559 6.142112,-7.748507 1.039437,-1.322917 5.480656,-6.52009 8.126489,-7.181548 2.645833,-0.661459 9.732881,0.09449 9.732881,0.09449 l 1.79539,-0.472469 0.56697,-9.260417 0.75595,1.322917 0.66146,-1.322917 0.28348,2.267858 0.85045,-2.456847 0.75595,1.322917 c 0,0 0.47247,7.181548 0.75595,7.843006 0.28348,0.661459 1.03944,2.456847 1.03944,2.929316 0,0.472469 0.94494,-1.795386 2.17336,-1.795386 1.22842,0 4.91369,0.566963 5.38616,0.566963 0.47247,0 2.17336,-0.377976 3.1183,-0.377976 0.94494,0 5.76414,5.008184 6.52009,6.047618 0.75595,1.039437 9.638387,12.189732 10.583327,13.418162 0.94495,1.22842 4.34673,5.480652 4.72471,7.181552 0.37797,1.70089 0.85044,6.42559 0.94494,7.46502 0.0945,1.03944 0.85044,12.85119 0.85044,12.85119 0,0 6.61459,2.83483 8.12649,5.19718 1.51191,2.36235 4.25223,7.18155 4.25223,7.18155 l -1.6064,-9.44941 -7.843,-25.79687 L 104.63076,86.976558 92.913493,69.96763 c 0,0 -12.18973,-10.110862 -12.37872,-10.488838 -0.18898,-0.377975 -9.07143,-6.04762 -9.07143,-6.04762 l -8.598954,2.929315 -8.126486,8.504465 -10.961312,12.567709 -9.35491,22.584079 -3.685267,11.24479 -2.645833,14.59934 z"
       id="path925"
       sodipodi:nodetypes="cscssssccccccccssssssssscscccccscccccccc" />
    <path
       style="fill:#aa8800;stroke:none;stroke-width:0.264583px;stroke-linecap:butt;stroke-linejoin:miter;stroke-opacity:1"
       d="m 115.45256,5.1136539 c -0.2359,0.136158 -0.31779,0.436482 -0.39649,0.681641 -0.16424,0.756093 -0.15496,1.535363 -0.22845,2.30291 -0.26832,3.5322741 -0.42829,7.0791141 -0.9583,10.5854071 -0.13298,0.984987 -0.41675,1.94158 -0.71265,2.888012 -0.94916,2.951513 -2.45466,5.710291 -4.34123,8.165892 -2.21636,2.979752 -4.45124,5.945662 -6.68124,8.915201 -0.41142,0.677735 -0.29342,1.50935 -0.16016,2.25 0.37508,1.988218 1.03441,3.949008 0.99709,5.993316 -0.07,2.000461 -0.94021,3.892404 -0.88967,5.905121 0.10816,1.151017 0.86575,2.238211 1.95118,2.666016 0.75018,0.166001 1.46529,-0.219678 2.10937,-0.554688 2.41499,-1.315808 4.5072,-3.192809 6.14131,-5.400085 1.66894,-2.162223 3.32091,-4.337668 4.96583,-6.518112 1.60373,-2.189539 2.96361,-4.56487 3.95699,-7.09336 1.24669,-3.099676 1.91186,-6.418279 2.07164,-9.75132 0.15738,-2.464338 0.15046,-4.943561 -0.0951,-7.401778 -0.33475,-2.81434 -1.22868,-5.599033 -2.84629,-7.944733 -1.29786,-1.9109271 -2.90696,-3.5780881 -4.42286,-5.3124871 -0.16759,-0.101933 -0.23537,-0.390936 -0.46093,-0.376953 z"
       id="path869" />
    <path
       style="fill:#aa8800;stroke:none;stroke-width:0.265;stroke-linecap:butt;stroke-linejoin:miter;stroke-miterlimit:4;stroke-dasharray:none;stroke-opacity:1"
       d="m 25.80217,8.2894359 c -0.694368,0.576541 -1.241418,1.30149 -1.793343,2.0091241 -1.075864,1.414888 -1.983685,2.964013 -2.63063,4.621738 -0.445867,1.132931 -0.752975,2.313747 -1.050697,3.492427 -0.196429,0.772024 -0.360884,1.551736 -0.531189,2.329835 -0.251554,1.20603 -0.462423,2.422498 -0.569819,3.650528 -0.137799,1.633543 -0.08769,3.284864 0.174159,4.903783 0.201913,1.240859 0.544333,2.454355 0.941814,3.645509 0.597709,1.767247 1.363241,3.476107 2.264701,5.108972 0.789616,1.442623 1.694083,2.825411 2.741102,4.095051 0.733045,0.897046 1.514036,1.753318 2.294606,2.608866 0.765453,0.829196 1.554827,1.637058 2.377471,2.409661 0.954301,0.877889 1.985244,1.668601 3.045497,2.413568 0.637499,0.444701 1.307136,0.841509 1.995745,1.201551 1.082491,0.565648 2.181406,1.099845 3.289532,1.613381 1.25036,0.574484 2.50882,1.13808 3.813036,1.580773 0.312784,0.108053 0.623551,0.222453 0.940749,0.317186 0.232009,0.05322 0.52153,-0.05976 0.587891,-0.304688 0.06015,-0.328364 -0.02094,-0.65982 -0.02085,-0.989756 -0.01957,-0.459673 0.0023,-0.921884 0.0814,-1.375478 0.101651,-0.668368 0.262669,-1.325792 0.397028,-1.98798 0.155786,-0.74733 0.338273,-1.489085 0.474065,-2.240536 0.210932,-0.909466 0.500522,-1.798657 0.705307,-2.709666 0.122971,-0.501327 0.232988,-1.008433 0.413508,-1.492929 0.147517,-0.355504 0.33116,-0.696062 0.455404,-1.061077 0.06322,-0.345786 -0.105026,-0.700295 -0.371093,-0.917969 -2.61665,-2.277188 -5.235593,-4.551763 -7.85081,-6.830583 -0.270917,-0.244388 -0.552014,-0.47903 -0.805758,-0.741425 -0.534203,-0.554643 -1.034627,-1.140517 -1.540182,-1.72101 C 34.895843,31.037319 34.254936,30.08379 33.614451,29.13342 33.026602,28.247492 32.452393,27.352394 31.892507,26.448531 31.269772,25.43797 30.661116,24.418134 30.092889,23.375796 29.774625,22.788719 29.476986,22.18962 29.233888,21.567112 28.741353,20.3641 28.489782,19.08366 28.186938,17.824592 c -0.695907,-3.066467 -1.375041,-6.136711 -2.0625,-9.2050781 -0.05019,-0.143394 -0.125866,-0.370314 -0.322265,-0.330078 z"
       id="path923" />
    <path
       style="fill:#554400;stroke:none;stroke-width:0.264583px;stroke-linecap:butt;stroke-linejoin:miter;stroke-opacity:1"
       d="m 68.173263,22.377326 c -3.477563,0.47939 -6.920486,1.498605 -9.944831,3.311083 -3.457146,2.079825 -6.431993,4.898877 -8.905391,8.072859 -1.231406,1.586687 -2.297982,3.306967 -3.095875,5.152688 -0.968734,2.186417 -1.585831,4.514417 -1.971844,6.870422 -1.213362,6.520529 -2.112604,13.112708 -3.84788,19.524638 -1.550941,5.79103 -3.189709,11.558692 -4.665462,17.369732 -1.065622,4.16464 -2.052848,8.34964 -2.928278,12.55853 -1.478138,6.905682 -2.989381,13.812642 -3.996197,20.806542 -0.741555,5.4012 -1.226364,10.83279 -1.772458,16.25604 -0.2626,2.67947 -0.525199,5.35894 -0.787799,8.03841 1.432039,-8.05181 2.847109,-16.10669 4.324219,-24.15039 0.893209,-3.45642 2.388685,-6.71057 3.753041,-9.99708 3.091919,-7.190852 6.192818,-14.389342 9.834668,-21.323502 1.512162,-2.877197 3.087987,-5.765312 5.254978,-8.211697 1.924972,-2.224513 3.980959,-4.331347 6.058012,-6.412991 2.400452,-2.337481 5.024316,-4.428618 7.670259,-6.478381 1.929005,-1.530247 3.800474,-3.149451 5.429348,-5.001856 0.94472,-0.993565 1.91135,-1.97018 2.96454,-2.849891 0.34174,-0.154926 0.74547,0.105741 0.84765,0.44336 1.09619,1.911562 2.15163,3.896081 3.74024,5.455078 6.63336,6.628992 13.28534,13.239594 19.87681,19.910301 4.949077,5.246317 9.585077,10.809777 13.582307,16.820237 2.08846,3.283912 3.56066,6.913182 4.79695,10.590552 3.56602,10.20265 6.68309,20.55361 9.85916,30.88204 0.1014,0.33574 0.19548,0.67377 0.25586,1.01953 0.076,0.28039 0.46737,0.2824 0.5216,-0.011 0.0905,-0.31494 0.01,-0.64713 0.0376,-0.96958 0.009,-5.02376 0.1147,-10.07567 -0.60935,-15.06164 -0.6245,-4.33788 -1.62696,-8.60891 -2.63414,-12.87056 -2.14182,-8.94923 -4.47229,-17.852472 -6.92558,-26.721122 -2.28025,-8.256194 -4.68061,-16.47851 -7.08902,-24.698023 -0.62877,-2.152896 -1.27715,-4.300408 -1.87299,-6.462685 -1.25859,-4.710793 -2.27136,-9.482954 -3.52043,-14.196205 -0.44897,-1.724194 -0.91636,-3.446421 -1.495,-5.131967 -0.88318,-2.238011 -2.523497,-4.10212 -4.408797,-5.561765 -2.58887,-2.033186 -5.61544,-3.427671 -8.70883,-4.505664 -4.26879,-1.476757 -8.76732,-2.270503 -13.2809,-2.397172 -2.11456,-0.06751 -4.23073,-0.07552 -6.3462,-0.06887 z"
       id="path44" />
    <path
       style="fill:#808080;stroke:none;stroke-width:0.264583px;stroke-linecap:butt;stroke-linejoin:miter;stroke-opacity:1"
       d="m 45.905114,99.547938 c 0,0 -3.726839,12.243632 -1.622666,27.008952 2.104173,14.76533 4.355116,16.3023 5.361075,27.84244 1.005959,11.54015 6.564124,21.6188 7.645566,26.35579 1.08144,4.737 0.915527,2.65616 0.915527,2.65616 0,0 -1.752428,-12.39893 0.07744,-15.49712 1.829872,-3.09819 2.592067,-3.65674 2.592067,-3.65674 0,0 5.300001,16.31279 4.514742,18.95007 -0.785262,2.63728 -0.787358,2.82626 -0.787358,2.82626 l 10.033446,-10.00016 c 0,0 0.36551,9.64304 6.02432,10.65082 5.65881,1.00779 8.20789,1.22507 7.74069,0.74739 -0.4672,-0.47769 -2.43468,-2.01151 -2.01584,-5.69236 0.41884,-3.68085 0.16578,-6.42415 1.71009,-9.33652 1.54431,-2.91236 1.20829,-6.69608 1.20829,-6.69608 0,0 -0.88232,4.63266 0.6322,11.158 1.51453,6.52534 1.51453,6.52534 1.51453,6.52534 0,0 0.59986,-9.71488 1.96253,-13.29075 1.36267,-3.57588 3.95937,-35.26521 5.74989,-40.05649 1.790517,-4.79128 4.734557,-17.18741 3.310627,-21.34615 -1.42393,-4.15873 -2.923667,-13.530382 -2.923667,-13.530382 0,0 -2.99167,4.64432 -3.53656,5.573772 -0.54488,0.92946 -2.72145,4.38002 -4.07106,5.56784 -1.34961,1.18781 -5.62714,1.27399 -5.62714,1.27399 0,0 -23.267334,1.21192 -24.735742,1.06198 -1.468409,-0.14993 -7.760719,0.8494 -11.055422,-3.33009 -3.294702,-4.17949 -4.617579,-5.765962 -4.617579,-5.765962 z"
       id="path1137" />
    <path
       style="fill:#000000;stroke:none;stroke-width:0.269605px;stroke-linecap:butt;stroke-linejoin:miter;stroke-opacity:1"
       d="m 68.069403,111.88463 c 0,0 -7.063317,15.90606 -6.685342,15.90546 0.377974,-5.5e-4 2.829399,-3.63482 9.157712,-5.5092 6.32831,-1.87437 17.10984,4.28955 17.10984,4.28955 0,0 -3.32281,-10.39489 -4.08037,-11.47294 -0.75756,-1.07805 -5.96234,-6.17167 -6.4351,-6.36715 -0.47277,-0.19547 -9.06674,3.15428 -9.06674,3.15428 z"
       id="path1107" />
    <path
       style="fill:#666666;stroke:none;stroke-width:0.240589px;stroke-linecap:butt;stroke-linejoin:miter;stroke-opacity:1"
       d="m 58.385753,119.93493 c 0.08965,2.27314 0.005,11.49337 1.167729,17.25562 1.162665,5.76225 8.531261,21.631 9.510951,23.24786 0.97969,1.61686 2.80896,6.98713 2.80896,6.98713 0,0 2.39627,-8.25372 3.5171,-9.97603 1.12083,-1.72232 3.16234,-7.44158 3.16234,-7.44158 0,0 0.0246,9.35534 0.66186,12.1704 0.6372,2.81505 1.56295,10.31148 1.56295,10.31148 0,0 0.16933,-6.41259 2.20227,-11.19646 2.03293,-4.78387 3.95047,-9.03471 4.29174,-10.09928 0.34128,-1.06456 5.74527,-11.95078 6.08655,-13.01534 0.34127,-1.06456 1.04711,-5.7326 0.85678,-9.07622 -0.19033,-3.34363 -1.85503,-12.0167 -4.29452,-13.68922 -2.43948,-1.67251 -2.43948,-1.67251 -2.43948,-1.67251 0,0 -5.00496,6.11648 -7.21842,6.48771 -2.21345,0.37123 -8.20193,2.69644 -11.06115,1.188 -2.859227,-1.50844 -4.511657,-2.06518 -5.164786,-3.14309 -0.653125,-1.07791 -5.650874,1.66153 -5.650874,1.66153 z"
       id="path1139" />
    <path
       style="fill:#4d4d4d;stroke:none;stroke-width:0.264583px;stroke-linecap:butt;stroke-linejoin:miter;stroke-opacity:1"
       d="m 70.808033,103.81873 c -2.68189,0.67609 -5.436887,1.2963 -7.843754,2.7168 -2.135392,1.41357 -3.637425,3.61408 -4.57559,5.96638 -1.877197,4.32574 -3.240934,8.9292 -3.510347,13.65667 -0.212846,4.35375 0.297696,8.69531 0.692964,13.02374 0.694903,6.75848 1.440994,13.51255 1.992754,20.28476 0.05984,0.62438 0.119677,1.24876 0.179516,1.87314 0.165118,-4.07015 0.394916,-8.1486 0.15625,-12.2207 0.339949,2.62297 0.597182,5.25781 0.71875,7.90039 0.169492,-2.77254 0.334854,-5.54533 0.496094,-8.31836 0.305338,5.5944 0.610677,11.1888 0.916015,16.7832 0.475391,-6.9554 1.001125,-13.90738 1.465202,-20.86349 0.198405,-3.80787 0.430765,-7.63855 1.29871,-11.36352 0.590739,-2.83478 1.252649,-5.67564 2.395139,-8.34679 1.242876,-3.14621 2.892427,-6.14927 5.049097,-8.76459 1.1821,-1.47396 2.40227,-2.92061 3.48326,-4.47216 0.28047,-0.28576 0.7995,-0.0947 0.91992,0.25977 2.52259,3.4497 4.91353,6.99278 7.33114,10.51612 1.22411,1.80608 2.45984,3.60596 3.62888,5.44791 1.52001,2.74869 2.1928,5.85524 2.75361,8.91698 1.43257,7.61207 2.05698,15.34649 2.50424,23.07046 0.30552,4.91974 0.59069,9.8407 0.87979,14.76142 0.13512,-3.90085 0.29018,-7.80202 0.57422,-11.69531 0.25986,4.61641 0.49731,9.23403 0.73632,13.85156 0.10988,-6.35051 0.26757,-12.70037 0.52149,-19.04688 0.22279,-9.05208 0.45844,-18.10602 0.40471,-27.16162 -0.08319,-3.32521 -0.60032,-6.66589 -1.8034,-9.77852 -1.11711,-3.15791 -2.32692,-6.29453 -3.86931,-9.27225 -0.89453,-1.66661 -1.9843,-3.31901 -3.60599,-4.35846 -1.74044,-1.15673 -3.74189,-1.83587 -5.73609,-2.40997 -2.64053,-0.7007 -5.38073,-0.95321 -8.10672,-0.96449 z"
       id="path935" />
    <rect
       style="fill:none;stroke:none;stroke-width:0.264583;stroke-opacity:1"
       id="rect945"
       width="141.47513"
       height="182.00101"
       x="0"
       y="4.4408921e-16" />
    <circle
       id="path1184"
       style="fill:#ffffff;stroke:#000000;stroke-width:0.264583"
       cx="400.57751"
       cy="92.650574"
       r="0.047170397" />
    <circle
       id="path1186"
       style="fill:#ffffff;stroke:#000000;stroke-width:0.264583"
       cx="400.57751"
       cy="92.650574"
       r="0.047170397" />
    <circle
       id="path1188"
       style="fill:#ffffff;stroke:#000000;stroke-width:0.264583"
       cx="386.13663"
       cy="88.941025"
       r="0.047170397" />
    <circle
       id="path1190"
       style="fill:#ffffff;stroke:#000000;stroke-width:0.264583"
       cx="386.13663"
       cy="88.941025"
       r="0.047170397" />
  </g>
</svg>
